<svg width="40" height="40" viewBox="0 0 40 40" fill="none" xmlns="http://www.w3.org/2000/svg">
<rect x="9" y="12" width="22" height="16" rx="2.4" stroke="#16B374" stroke-width="2"/>
<path d="M14.8439 15.8C14.8878 16.151 14.7416 16.5021 14.5368 16.7654C14.3174 17.0286 13.981 17.2188 13.6299 17.1749C13.586 16.8385 13.7615 16.4728 13.9517 16.2534C14.1711 16.0048 14.5368 15.8146 14.8439 15.8Z" fill="#16B374"/>
<path d="M14.042 17.4386C14.2644 17.3522 14.5406 17.2448 14.8439 17.2627C15.0341 17.2773 15.5899 17.3358 15.9263 17.8624C15.8971 17.877 15.2681 18.2427 15.2827 19.0033C15.2827 19.8338 15.9452 20.1491 16.068 20.2075C16.0793 20.2129 16.086 20.2161 16.0872 20.2173C16.0872 20.2319 15.9702 20.6415 15.6777 21.0657C15.429 21.446 15.1657 21.797 14.7562 21.8116C14.5525 21.8189 14.4176 21.7611 14.2776 21.7011C14.1361 21.6405 13.9895 21.5776 13.7615 21.5776C13.5196 21.5776 13.3651 21.6442 13.2158 21.7086C13.0854 21.7649 12.9589 21.8194 12.7815 21.8263C12.3866 21.8409 12.0795 21.4313 11.8308 21.0657C11.3042 20.3197 10.9239 18.9594 11.4505 18.0379C11.7138 17.5698 12.1818 17.2919 12.6938 17.2773C12.9169 17.2773 13.1307 17.3614 13.3167 17.4345C13.4599 17.4908 13.5866 17.5406 13.6884 17.5406C13.7797 17.5406 13.8999 17.4939 14.042 17.4386Z" fill="#16B374"/>
<path fill-rule="evenodd" clip-rule="evenodd" d="M20.9726 18.0379C20.9726 16.9701 20.2266 16.2242 19.1442 16.2242H17.0672V21.7531H17.9302V19.8663H19.115C20.212 19.8663 20.9726 19.1203 20.9726 18.0379ZM18.9102 19.1495H17.9156V16.9555H18.9102C19.6562 16.9555 20.0804 17.3504 20.0804 18.0525C20.0804 18.74 19.6562 19.1495 18.9102 19.1495Z" fill="#16B374"/>
<path fill-rule="evenodd" clip-rule="evenodd" d="M22.6986 19.4275C21.7332 19.486 21.192 19.9248 21.192 20.6269C21.192 21.3436 21.7478 21.8409 22.5669 21.8409C23.0935 21.8409 23.6054 21.563 23.8395 21.1095H23.8541V21.7678H24.644V18.9886C24.644 18.1695 24.015 17.6576 23.035 17.6576C22.0404 17.6576 21.4114 18.1988 21.3675 18.9301H22.1574C22.2305 18.5791 22.5231 18.3451 23.0057 18.3451C23.5031 18.3451 23.8102 18.6084 23.8102 19.0618V19.3689L22.6986 19.4275ZM23.8102 19.9394V20.2612C23.8102 20.7878 23.3568 21.1827 22.7717 21.1827C22.3329 21.1827 22.0404 20.9487 22.0404 20.5976C22.0404 20.2466 22.3183 20.0272 22.8156 19.9979L23.8102 19.9394Z" fill="#16B374"/>
<path d="M25.3753 22.5869V23.2597C25.4112 23.2669 25.4789 23.2705 25.5454 23.2741C25.6143 23.2779 25.6819 23.2815 25.7117 23.289C26.5455 23.289 26.9404 22.9818 27.2914 22.0018L28.798 17.7454H27.9204L26.8965 21.0364H26.8819L25.858 17.7454H24.9658L26.4284 21.7824C26.4284 21.7824 26.3553 22.0164 26.3553 22.031C26.2237 22.4406 26.0189 22.6015 25.6386 22.6015C25.5801 22.6015 25.4338 22.6015 25.3753 22.5869Z" fill="#16B374"/>
</svg>
