<svg width="40" height="40" viewBox="0 0 40 40" fill="none" xmlns="http://www.w3.org/2000/svg">
<rect x="6.00244" y="10" width="28" height="20.5" rx="2.4" stroke="#16B374" stroke-width="2"/>
<path d="M13.5574 15C13.6123 15.4388 13.4294 15.8776 13.1735 16.2067C12.8992 16.5358 12.4787 16.7735 12.0399 16.7187C11.985 16.2981 12.2044 15.841 12.4421 15.5668C12.7164 15.256 13.1735 15.0183 13.5574 15Z" fill="#16B374"/>
<path d="M12.5551 17.0483C12.833 16.9402 13.1782 16.8061 13.5574 16.8284C13.7951 16.8466 14.4899 16.9198 14.9104 17.578C14.8739 17.5963 14.0877 18.0534 14.1059 19.0041C14.1059 20.0423 14.934 20.4363 15.0875 20.5094C15.1016 20.5161 15.11 20.5201 15.1115 20.5217C15.1115 20.5399 14.9653 21.0519 14.5996 21.5821C14.2888 22.0575 13.9597 22.4963 13.4477 22.5146C13.1931 22.5237 13.0245 22.4514 12.8495 22.3764C12.6727 22.3006 12.4894 22.222 12.2044 22.222C11.902 22.222 11.7089 22.3053 11.5223 22.3858C11.3592 22.4561 11.2011 22.5243 10.9794 22.5328C10.4858 22.5511 10.1018 22.0392 9.791 21.5821C9.13279 20.6496 8.65741 18.9493 9.31562 17.7974C9.64473 17.2123 10.2298 16.8649 10.8697 16.8466C11.1487 16.8466 11.4159 16.9517 11.6484 17.0431C11.8274 17.1135 11.9858 17.1757 12.113 17.1757C12.2271 17.1757 12.3773 17.1174 12.5551 17.0483Z" fill="#16B374"/>
<path fill-rule="evenodd" clip-rule="evenodd" d="M21.2183 17.7974C21.2183 16.4627 20.2858 15.5302 18.9328 15.5302H16.3365V22.4414H17.4153V20.0828H18.8962C20.2675 20.0828 21.2183 19.1504 21.2183 17.7974ZM18.6403 19.1869H17.397V16.4444H18.6403C19.5727 16.4444 20.103 16.9381 20.103 17.8157C20.103 18.675 19.5727 19.1869 18.6403 19.1869Z" fill="#16B374"/>
<path fill-rule="evenodd" clip-rule="evenodd" d="M23.3757 19.5343C22.169 19.6075 21.4925 20.156 21.4925 21.0336C21.4925 21.9295 22.1873 22.5511 23.2112 22.5511C23.8694 22.5511 24.5093 22.2037 24.8019 21.637H24.8201V22.4597H25.8075V18.9858C25.8075 17.9619 25.0213 17.322 23.7963 17.322C22.553 17.322 21.7668 17.9985 21.7119 18.9127H22.6992C22.7907 18.4739 23.1563 18.1813 23.7597 18.1813C24.3813 18.1813 24.7653 18.5105 24.7653 19.0772V19.4612L23.3757 19.5343ZM24.7653 20.1743V20.5765C24.7653 21.2347 24.1985 21.7284 23.4671 21.7284C22.9186 21.7284 22.553 21.4358 22.553 20.997C22.553 20.5582 22.9004 20.284 23.522 20.2474L24.7653 20.1743Z" fill="#16B374"/>
<path d="M26.7216 23.4836V24.3246C26.7665 24.3336 26.8511 24.3382 26.9342 24.3427C27.0204 24.3473 27.1049 24.3519 27.1422 24.3612C28.1843 24.3612 28.678 23.9773 29.1168 22.7523L31 17.4317H29.903L28.6231 21.5455H28.6048L27.325 17.4317H26.2097L28.0381 22.478C28.0381 22.478 27.9466 22.7705 27.9466 22.7888C27.7821 23.3008 27.5261 23.5019 27.0507 23.5019C26.9776 23.5019 26.7948 23.5019 26.7216 23.4836Z" fill="#16B374"/>
</svg>
