<svg width="40" height="40" viewBox="0 0 40 40" fill="none" xmlns="http://www.w3.org/2000/svg">
<path d="M26.75 16H25.625V13.7143C25.625 10.56 23.105 8 20 8C16.895 8 14.375 10.56 14.375 13.7143V16H13.25C12.0125 16 11 17.0286 11 18.2857V29.7143C11 30.9714 12.0125 32 13.25 32H26.75C27.9875 32 29 30.9714 29 29.7143V18.2857C29 17.0286 27.9875 16 26.75 16ZM20 26.2857C18.7625 26.2857 17.75 25.2571 17.75 24C17.75 22.7429 18.7625 21.7143 20 21.7143C21.2375 21.7143 22.25 22.7429 22.25 24C22.25 25.2571 21.2375 26.2857 20 26.2857ZM23.4875 16H16.5125V13.7143C16.5125 11.76 18.0762 10.1714 20 10.1714C21.9238 10.1714 23.4875 11.76 23.4875 13.7143V16Z" fill="#EA001B"/>
</svg>
