<svg width="40" height="40" viewBox="0 0 40 40" fill="none" xmlns="http://www.w3.org/2000/svg">
<path d="M28.6899 15H27.2837V12.1429C27.2837 8.2 24.1337 5 20.2524 5C16.3712 5 13.2212 8.2 13.2212 12.1429V15H11.8149C10.2681 15 9.00244 16.2857 9.00244 17.8571V32.1429C9.00244 33.7143 10.2681 35 11.8149 35H28.6899C30.2368 35 31.5024 33.7143 31.5024 32.1429V17.8571C31.5024 16.2857 30.2368 15 28.6899 15ZM20.2524 27.8571C18.7056 27.8571 17.4399 26.5714 17.4399 25C17.4399 23.4286 18.7056 22.1429 20.2524 22.1429C21.7993 22.1429 23.0649 23.4286 23.0649 25C23.0649 26.5714 21.7993 27.8571 20.2524 27.8571ZM24.6118 15H15.8931V12.1429C15.8931 9.7 17.8478 7.71429 20.2524 7.71429C22.6571 7.71429 24.6118 9.7 24.6118 12.1429V15Z" fill="#EA001B"/>
</svg>
