<svg width="380" height="240" viewBox="0 0 380 240" fill="none" xmlns="http://www.w3.org/2000/svg">
<rect width="380" height="240" rx="15" fill="url(#paint0_linear)"/>
<mask id="mask0" mask-type="alpha" maskUnits="userSpaceOnUse" x="0" y="0" width="380" height="240">
<rect width="380" height="240" rx="20" fill="#C4C4C4"/>
</mask>
<g mask="url(#mask0)">
<g opacity="0.3">
<path d="M305.651 19.9992C308.251 10.324 318.224 4.58223 327.927 7.17471L350.154 13.1135C350.737 13.269 351.082 13.8657 350.926 14.4463C348.326 24.1215 338.353 29.8633 328.65 27.2708L306.422 21.332C305.84 21.1764 305.495 20.5797 305.651 19.9992Z" fill="white" fill-opacity="0.1"/>
<path d="M305.651 52.5843C308.251 42.909 318.224 37.1673 327.927 39.7598L350.154 45.6985C350.737 45.8541 351.082 46.4508 350.926 47.0313C348.326 56.7066 338.353 62.4483 328.65 59.8558L306.422 53.917C305.84 53.7615 305.495 53.1648 305.651 52.5843Z" fill="white" fill-opacity="0.1"/>
<path d="M305.651 85.1693C308.251 75.4941 318.224 69.7523 327.927 72.3448L350.154 78.2836C350.737 78.4391 351.082 79.0358 350.926 79.6164C348.326 89.2916 338.353 95.0333 328.65 92.4409L306.422 86.5021C305.84 86.3465 305.495 85.7498 305.651 85.1693Z" fill="white" fill-opacity="0.1"/>
<path d="M305.651 117.754C308.251 108.079 318.224 102.337 327.927 104.93L350.154 110.869C350.737 111.024 351.082 111.621 350.926 112.201C348.326 121.877 338.353 127.618 328.65 125.026L306.422 119.087C305.84 118.932 305.495 118.335 305.651 117.754Z" fill="white" fill-opacity="0.1"/>
<path d="M305.651 150.339C308.251 140.664 318.224 134.922 327.927 137.515L350.154 143.454C350.737 143.609 351.082 144.206 350.926 144.786C348.326 154.462 338.353 160.203 328.65 157.611L306.422 151.672C305.84 151.517 305.495 150.92 305.651 150.339Z" fill="white" fill-opacity="0.1"/>
<path d="M305.651 182.924C308.251 173.249 318.224 167.507 327.927 170.1L350.154 176.039C350.737 176.194 351.082 176.791 350.926 177.372C348.326 187.047 338.353 192.789 328.65 190.196L306.422 184.257C305.84 184.102 305.495 183.505 305.651 182.924Z" fill="white" fill-opacity="0.1"/>
<path d="M305.651 215.51C308.251 205.834 318.224 200.093 327.927 202.685L350.154 208.624C350.737 208.779 351.082 209.376 350.926 209.957C348.326 219.632 338.353 225.374 328.65 222.781L306.422 216.842C305.84 216.687 305.495 216.09 305.651 215.51Z" fill="white" fill-opacity="0.1"/>
<path d="M305.651 248.095C308.251 238.419 318.224 232.678 327.927 235.27L350.154 241.209C350.737 241.364 351.082 241.961 350.926 242.542C348.326 252.217 338.353 257.959 328.65 255.366L306.422 249.427C305.84 249.272 305.495 248.675 305.651 248.095Z" fill="white" fill-opacity="0.1"/>
<path d="M346.561 3.37985C349.915 -9.10436 362.784 -16.5131 375.304 -13.1679L403.985 -5.50496C404.736 -5.30425 405.182 -4.53432 404.981 -3.78526C401.626 8.69895 388.757 16.1076 376.237 12.7625L347.557 5.09954C346.805 4.89884 346.359 4.1289 346.561 3.37985Z" fill="white" fill-opacity="0.1"/>
<path d="M346.561 36.1528C349.915 23.6685 362.784 16.2599 375.304 19.605L403.985 27.2679C404.736 27.4687 405.182 28.2386 404.981 28.9876C401.626 41.4719 388.757 48.8805 376.237 45.5354L347.557 37.8724C346.805 37.6717 346.359 36.9018 346.561 36.1528Z" fill="white" fill-opacity="0.1"/>
<path d="M346.561 68.9257C349.915 56.4414 362.784 49.0328 375.304 52.3779L403.985 60.0408C404.736 60.2416 405.182 61.0115 404.981 61.7605C401.626 74.2448 388.757 81.6534 376.237 78.3083L347.557 70.6454C346.805 70.4446 346.359 69.6747 346.561 68.9257Z" fill="white" fill-opacity="0.1"/>
<path d="M346.561 101.699C349.915 89.2143 362.784 81.8057 375.304 85.1508L403.985 92.8138C404.736 93.0145 405.182 93.7844 404.981 94.5334C401.626 107.018 388.757 114.426 376.237 111.081L347.557 103.418C346.805 103.218 346.359 102.448 346.561 101.699Z" fill="white" fill-opacity="0.1"/>
<path d="M346.561 134.471C349.915 121.987 362.784 114.579 375.304 117.924L403.985 125.587C404.736 125.787 405.182 126.557 404.981 127.306C401.626 139.791 388.757 147.199 376.237 143.854L347.557 136.191C346.805 135.99 346.359 135.221 346.561 134.471Z" fill="white" fill-opacity="0.1"/>
<path d="M346.561 167.244C349.915 154.76 362.784 147.351 375.304 150.697L403.985 158.36C404.736 158.56 405.182 159.33 404.981 160.079C401.626 172.563 388.757 179.972 376.237 176.627L347.557 168.964C346.805 168.763 346.359 167.993 346.561 167.244Z" fill="white" fill-opacity="0.1"/>
<path d="M346.561 200.017C349.915 187.533 362.784 180.124 375.304 183.47L403.985 191.132C404.736 191.333 405.182 192.103 404.981 192.852C401.626 205.336 388.757 212.745 376.237 209.4L347.557 201.737C346.805 201.536 346.359 200.766 346.561 200.017Z" fill="white" fill-opacity="0.1"/>
<path d="M346.561 232.79C349.915 220.306 362.784 212.897 375.304 216.242L403.985 223.905C404.736 224.106 405.182 224.876 404.981 225.625C401.626 238.109 388.757 245.518 376.237 242.173L347.557 234.51C346.805 234.309 346.359 233.539 346.561 232.79Z" fill="white" fill-opacity="0.1"/>
<path d="M275.769 5.55581C277.698 -1.62261 285.098 -5.88261 292.297 -3.95916L308.788 0.447047C309.22 0.562454 309.476 1.00517 309.36 1.43587C307.431 8.61429 300.032 12.8743 292.833 10.9508L276.342 6.54463C275.91 6.42923 275.653 5.98652 275.769 5.55581Z" fill="white" fill-opacity="0.1"/>
<path d="M275.769 37.8039C277.698 30.6255 285.098 26.3655 292.297 28.2889L308.788 32.6951C309.22 32.8105 309.476 33.2532 309.36 33.6839C307.431 40.8624 300.032 45.1223 292.833 43.1989L276.342 38.7927C275.91 38.6773 275.653 38.2346 275.769 37.8039Z" fill="white" fill-opacity="0.1"/>
<path d="M275.769 70.0519C277.698 62.8735 285.098 58.6135 292.297 60.537L308.788 64.9432C309.22 65.0586 309.476 65.5013 309.36 65.932C307.431 73.1104 300.032 77.3704 292.833 75.447L276.342 71.0408C275.91 70.9253 275.653 70.4826 275.769 70.0519Z" fill="white" fill-opacity="0.1"/>
<path d="M275.769 102.3C277.698 95.1216 285.098 90.8616 292.297 92.785L308.788 97.1912C309.22 97.3066 309.476 97.7493 309.36 98.18C307.431 105.358 300.032 109.618 292.833 107.695L276.342 103.289C275.91 103.173 275.653 102.731 275.769 102.3Z" fill="white" fill-opacity="0.1"/>
<path d="M275.769 134.548C277.698 127.37 285.098 123.11 292.297 125.033L308.788 129.439C309.22 129.555 309.476 129.997 309.36 130.428C307.431 137.607 300.032 141.867 292.833 139.943L276.342 135.537C275.91 135.421 275.653 134.979 275.769 134.548Z" fill="white" fill-opacity="0.1"/>
<path d="M275.769 166.796C277.698 159.618 285.098 155.358 292.297 157.281L308.788 161.687C309.22 161.803 309.476 162.245 309.36 162.676C307.431 169.855 300.032 174.115 292.833 172.191L276.342 167.785C275.91 167.67 275.653 167.227 275.769 166.796Z" fill="white" fill-opacity="0.1"/>
<path d="M275.769 199.044C277.698 191.866 285.098 187.606 292.297 189.529L308.788 193.935C309.22 194.051 309.476 194.494 309.36 194.924C307.431 202.103 300.032 206.363 292.833 204.439L276.342 200.033C275.91 199.918 275.653 199.475 275.769 199.044Z" fill="white" fill-opacity="0.1"/>
<path d="M275.769 231.292C277.698 224.114 285.098 219.854 292.297 221.777L308.788 226.183C309.22 226.299 309.476 226.742 309.36 227.172C307.431 234.351 300.032 238.611 292.833 236.687L276.342 232.281C275.91 232.166 275.653 231.723 275.769 231.292Z" fill="white" fill-opacity="0.1"/>
<path d="M249.438 20.6046C251.115 14.3625 257.55 10.6582 263.809 12.3308L278.15 16.1622C278.525 16.2626 278.748 16.6476 278.648 17.0221C276.97 23.2642 270.536 26.9685 264.276 25.296L249.936 21.4645C249.56 21.3641 249.337 20.9792 249.438 20.6046Z" fill="white" fill-opacity="0.1"/>
<path d="M249.438 54.5105C251.115 48.2684 257.55 44.564 263.81 46.2366L278.15 50.0681C278.525 50.1684 278.748 50.5534 278.648 50.9279C276.97 57.17 270.536 60.8744 264.276 59.2018L249.936 55.3703C249.56 55.27 249.337 54.885 249.438 54.5105Z" fill="white" fill-opacity="0.1"/>
<path d="M249.438 88.4163C251.115 82.1742 257.55 78.4699 263.81 80.1424L278.15 83.9739C278.525 84.0743 278.748 84.4592 278.648 84.8338C276.97 91.0759 270.536 94.7802 264.276 93.1076L249.936 89.2761C249.56 89.1758 249.337 88.7908 249.438 88.4163Z" fill="white" fill-opacity="0.1"/>
<path d="M249.438 118.601C251.115 112.359 257.55 108.655 263.809 110.327L278.15 114.159C278.525 114.259 278.748 114.644 278.648 115.019C276.97 121.261 270.536 124.965 264.276 123.293L249.936 119.461C249.56 119.361 249.337 118.976 249.438 118.601Z" fill="white" fill-opacity="0.1"/>
<path d="M249.438 150.026C251.115 143.784 257.55 140.08 263.81 141.753L278.15 145.584C278.525 145.684 278.748 146.069 278.648 146.444C276.97 152.686 270.536 156.39 264.276 154.718L249.936 150.886C249.56 150.786 249.337 150.401 249.438 150.026Z" fill="white" fill-opacity="0.1"/>
<path d="M249.438 182.692C251.115 176.45 257.55 172.745 263.81 174.418L278.15 178.25C278.525 178.35 278.748 178.735 278.648 179.109C276.97 185.351 270.536 189.056 264.276 187.383L249.936 183.552C249.56 183.451 249.337 183.066 249.438 182.692Z" fill="white" fill-opacity="0.1"/>
<path d="M249.438 216.598C251.115 210.356 257.55 206.651 263.809 208.324L278.15 212.155C278.525 212.256 278.748 212.641 278.648 213.015C276.97 219.257 270.536 222.962 264.276 221.289L249.936 217.458C249.56 217.357 249.337 216.972 249.438 216.598Z" fill="white" fill-opacity="0.1"/>
<path d="M249.438 246.783C251.115 240.541 257.55 236.836 263.81 238.509L278.15 242.34C278.525 242.441 278.748 242.826 278.648 243.2C276.97 249.442 270.536 253.147 264.276 251.474L249.936 247.643C249.56 247.542 249.337 247.157 249.438 246.783Z" fill="white" fill-opacity="0.1"/>
<path d="M229.024 8.88708C230.435 3.63637 235.848 0.520367 241.113 1.92729L253.176 5.15024C253.492 5.23465 253.679 5.55848 253.595 5.87352C252.184 11.1242 246.771 14.2402 241.505 12.8333L229.443 9.61036C229.127 9.52595 228.939 9.20212 229.024 8.88708Z" fill="white" fill-opacity="0.1"/>
<path d="M229.024 39.1516C230.435 33.9009 235.847 30.7849 241.113 32.1918L253.176 35.4147C253.492 35.4992 253.679 35.823 253.595 36.138C252.184 41.3887 246.771 44.5047 241.505 43.0978L229.443 39.8749C229.127 39.7904 228.939 39.4666 229.024 39.1516Z" fill="white" fill-opacity="0.1"/>
<path d="M229.024 72.5169C230.435 67.2662 235.847 64.1501 241.113 65.5571L253.176 68.78C253.492 68.8644 253.679 69.1883 253.595 69.5033C252.184 74.754 246.771 77.87 241.505 76.4631L229.443 73.2401C229.127 73.1557 228.939 72.8319 229.024 72.5169Z" fill="white" fill-opacity="0.1"/>
<path d="M229.024 136.147C230.435 130.896 235.847 127.78 241.113 129.187L253.176 132.41C253.492 132.494 253.679 132.818 253.595 133.133C252.184 138.384 246.771 141.5 241.505 140.093L229.443 136.87C229.127 136.786 228.939 136.462 229.024 136.147Z" fill="white" fill-opacity="0.1"/>
<path d="M229.024 169.512C230.435 164.261 235.847 161.145 241.113 162.552L253.176 165.775C253.492 165.859 253.679 166.183 253.595 166.498C252.184 171.749 246.771 174.865 241.505 173.458L229.443 170.235C229.127 170.151 228.939 169.827 229.024 169.512Z" fill="white" fill-opacity="0.1"/>
<path d="M229.024 200.397C230.435 195.146 235.847 192.03 241.113 193.437L253.176 196.66C253.492 196.744 253.679 197.068 253.595 197.383C252.184 202.634 246.771 205.75 241.505 204.343L229.443 201.12C229.127 201.035 228.939 200.712 229.024 200.397Z" fill="white" fill-opacity="0.1"/>
<path d="M229.024 231.281C230.435 226.031 235.847 222.915 241.113 224.321L253.176 227.544C253.492 227.629 253.679 227.953 253.595 228.268C252.184 233.518 246.771 236.634 241.505 235.227L229.443 232.005C229.127 231.92 228.939 231.596 229.024 231.281Z" fill="white" fill-opacity="0.1"/>
<path d="M212.066 23.9675C213.23 19.6357 217.695 17.065 222.04 18.2257L231.991 20.8846C232.252 20.9542 232.407 21.2214 232.337 21.4813C231.173 25.8131 226.707 28.3838 222.363 27.2231L212.412 24.5642C212.151 24.4946 211.996 24.2274 212.066 23.9675Z" fill="white" fill-opacity="0.1"/>
<path d="M212.066 54.5326C213.23 50.2008 217.695 47.6301 222.04 48.7908L231.991 51.4497C232.252 51.5194 232.407 51.7865 232.337 52.0464C231.173 56.3783 226.707 58.949 222.363 57.7882L212.412 55.1293C212.151 55.0597 211.996 54.7925 212.066 54.5326Z" fill="white" fill-opacity="0.1"/>
<path d="M212.066 89.4388C213.23 85.107 217.695 82.5363 222.04 83.697L231.991 86.3559C232.252 86.4256 232.407 86.6927 232.337 86.9526C231.173 91.2845 226.707 93.8551 222.363 92.6944L212.412 90.0355C212.151 89.9659 211.996 89.6987 212.066 89.4388Z" fill="white" fill-opacity="0.1"/>
<path d="M212.066 119.384C213.23 115.052 217.695 112.481 222.04 113.642L231.991 116.301C232.252 116.371 232.407 116.638 232.337 116.898C231.173 121.229 226.707 123.8 222.363 122.639L212.412 119.98C212.151 119.911 211.996 119.644 212.066 119.384Z" fill="white" fill-opacity="0.1"/>
<path d="M212.066 151.189C213.23 146.857 217.695 144.287 222.04 145.447L231.991 148.106C232.252 148.176 232.407 148.443 232.337 148.703C231.173 153.035 226.707 155.606 222.363 154.445L212.412 151.786C212.151 151.716 211.996 151.449 212.066 151.189Z" fill="white" fill-opacity="0.1"/>
<path d="M212.066 184.855C213.23 180.523 217.695 177.953 222.04 179.113L231.991 181.772C232.252 181.842 232.407 182.109 232.337 182.369C231.173 186.701 226.707 189.271 222.363 188.111L212.412 185.452C212.151 185.382 211.996 185.115 212.066 184.855Z" fill="white" fill-opacity="0.1"/>
<path d="M212.066 215.42C213.23 211.088 217.695 208.518 222.04 209.678L231.991 212.337C232.252 212.407 232.407 212.674 232.337 212.934C231.173 217.266 226.707 219.837 222.363 218.676L212.412 216.017C212.151 215.947 211.996 215.68 212.066 215.42Z" fill="white" fill-opacity="0.1"/>
<path d="M198.496 71.296C199.413 67.883 202.931 65.8576 206.354 66.7721L214.194 68.867C214.4 68.9219 214.522 69.1324 214.467 69.3372C213.55 72.7501 210.031 74.7755 206.609 73.861L198.768 71.7661C198.563 71.7112 198.441 71.5007 198.496 71.296Z" fill="white" fill-opacity="0.1"/>
<path d="M198.496 100.339C199.413 96.9258 202.931 94.9005 206.354 95.8149L214.194 97.9099C214.4 97.9647 214.522 98.1752 214.467 98.38C213.55 101.793 210.031 103.818 206.609 102.904L198.768 100.809C198.563 100.754 198.441 100.544 198.496 100.339Z" fill="white" fill-opacity="0.1"/>
<path d="M198.496 167.19C199.413 163.777 202.931 161.752 206.354 162.666L214.194 164.761C214.4 164.816 214.522 165.027 214.467 165.231C213.55 168.644 210.031 170.67 206.609 169.755L198.768 167.66C198.563 167.605 198.441 167.395 198.496 167.19Z" fill="white" fill-opacity="0.1"/>
<path d="M198.496 199.916C199.413 196.503 202.931 194.478 206.354 195.392L214.194 197.487C214.4 197.542 214.522 197.753 214.467 197.958C213.55 201.371 210.031 203.396 206.609 202.481L198.768 200.386C198.563 200.332 198.441 200.121 198.496 199.916Z" fill="white" fill-opacity="0.1"/>
<path d="M181.074 87.5648C181.921 84.4144 185.168 82.5448 188.328 83.3889L195.565 85.3227C195.755 85.3733 195.867 85.5676 195.816 85.7567C194.97 88.9071 191.722 90.7767 188.563 89.9325L181.325 87.9987C181.136 87.9481 181.023 87.7538 181.074 87.5648Z" fill="white" fill-opacity="0.1"/>
<path d="M181.074 119.335C181.921 116.184 185.168 114.315 188.328 115.159L195.565 117.093C195.755 117.143 195.867 117.338 195.816 117.527C194.97 120.677 191.722 122.547 188.563 121.703L181.325 119.769C181.136 119.718 181.023 119.524 181.074 119.335Z" fill="white" fill-opacity="0.1"/>
<path d="M181.074 181.664C181.921 178.513 185.168 176.644 188.328 177.488L195.565 179.422C195.755 179.472 195.867 179.667 195.816 179.856C194.97 183.006 191.722 184.876 188.563 184.032L181.325 182.098C181.136 182.047 181.023 181.853 181.074 181.664Z" fill="white" fill-opacity="0.1"/>
<path d="M181.074 149.416C181.921 146.265 185.168 144.396 188.328 145.24L195.565 147.174C195.755 147.224 195.867 147.419 195.816 147.608C194.97 150.758 191.722 152.628 188.563 151.783L181.325 149.85C181.136 149.799 181.023 149.605 181.074 149.416Z" fill="white" fill-opacity="0.1"/>
<path d="M181.074 213.733C181.921 210.583 185.168 208.713 188.328 209.557L195.565 211.491C195.755 211.542 195.867 211.736 195.816 211.925C194.97 215.075 191.722 216.945 188.563 216.101L181.325 214.167C181.136 214.116 181.023 213.922 181.074 213.733Z" fill="white" fill-opacity="0.1"/>
<path d="M164.266 7.85438C164.972 5.22903 167.678 3.67103 170.311 4.37449L176.342 5.98596C176.5 6.02817 176.594 6.19008 176.552 6.3476C175.846 8.97296 173.14 10.531 170.507 9.8275L164.476 8.21602C164.318 8.17382 164.224 8.01191 164.266 7.85438Z" fill="white" fill-opacity="0.1"/>
<path d="M144.987 23.3583C145.692 20.7329 148.398 19.1749 151.031 19.8784L157.063 21.4898C157.221 21.532 157.314 21.694 157.272 21.8515C156.566 24.4768 153.86 26.0348 151.227 25.3314L145.196 23.7199C145.038 23.6777 144.944 23.5158 144.987 23.3583Z" fill="white" fill-opacity="0.1"/>
<path d="M65.3794 85.03C66.0849 82.4046 68.7912 80.8466 71.424 81.5501L77.4554 83.1616C77.6133 83.2038 77.7071 83.3657 77.6648 83.5232C76.9593 86.1486 74.253 87.7066 71.6201 87.0031L65.5888 85.3916C65.4308 85.3494 65.3371 85.1875 65.3794 85.03Z" fill="white" fill-opacity="0.1"/>
<path d="M164.267 71.8C164.972 69.1746 167.678 67.6166 170.311 68.3201L176.342 69.9316C176.5 69.9738 176.594 70.1357 176.552 70.2932C175.846 72.9186 173.14 74.4766 170.507 73.7731L164.476 72.1616C164.318 72.1194 164.224 71.9575 164.267 71.8Z" fill="white" fill-opacity="0.1"/>
<path d="M104.561 85.0877C105.267 82.4623 107.973 80.9043 110.606 81.6078L116.637 83.2193C116.795 83.2615 116.889 83.4234 116.846 83.5809C116.141 86.2063 113.435 87.7643 110.802 87.0608L104.77 85.4493C104.613 85.4071 104.519 85.2452 104.561 85.0877Z" fill="white" fill-opacity="0.1"/>
<path d="M144.987 85.0877C145.692 82.4623 148.398 80.9043 151.031 81.6078L157.063 83.2193C157.221 83.2615 157.314 83.4234 157.272 83.5809C156.566 86.2063 153.86 87.7643 151.227 87.0608L145.196 85.4493C145.038 85.4071 144.944 85.2452 144.987 85.0877Z" fill="white" fill-opacity="0.1"/>
<path d="M125.707 100.592C126.412 97.9662 129.119 96.4082 131.751 97.1117L137.783 98.7232C137.941 98.7654 138.034 98.9273 137.992 99.0848C137.287 101.71 134.58 103.268 131.947 102.565L125.916 100.953C125.758 100.911 125.664 100.749 125.707 100.592Z" fill="white" fill-opacity="0.1"/>
<path d="M126.329 165.708C127.034 163.082 129.74 161.524 132.373 162.228L138.405 163.839C138.563 163.882 138.656 164.044 138.614 164.201C137.909 166.826 135.202 168.384 132.569 167.681L126.538 166.069C126.38 166.027 126.286 165.865 126.329 165.708Z" fill="white" fill-opacity="0.1"/>
<path d="M164.267 165.994C164.972 163.369 167.678 161.811 170.311 162.514L176.342 164.125C176.5 164.168 176.594 164.33 176.552 164.487C175.846 167.112 173.14 168.67 170.507 167.967L164.476 166.356C164.318 166.313 164.224 166.151 164.267 165.994Z" fill="white" fill-opacity="0.1"/>
<path d="M126.329 198.862C127.034 196.237 129.74 194.679 132.373 195.382L138.405 196.994C138.563 197.036 138.656 197.198 138.614 197.355C137.909 199.981 135.202 201.539 132.569 200.835L126.538 199.224C126.38 199.182 126.286 199.02 126.329 198.862Z" fill="white" fill-opacity="0.1"/>
<path d="M164.267 198.862C164.972 196.237 167.678 194.679 170.311 195.382L176.342 196.994C176.5 197.036 176.594 197.198 176.552 197.355C175.846 199.981 173.14 201.539 170.507 200.835L164.476 199.224C164.318 199.182 164.224 199.02 164.267 198.862Z" fill="white" fill-opacity="0.1"/>
<path d="M24.9539 212.506C25.6594 209.88 28.3656 208.322 30.9985 209.026L37.0298 210.637C37.1878 210.679 37.2816 210.841 37.2392 210.999C36.5337 213.624 33.8275 215.182 31.1946 214.479L25.1633 212.867C25.0053 212.825 24.9116 212.663 24.9539 212.506Z" fill="white" fill-opacity="0.1"/>
<path d="M164.267 230.49C164.972 227.865 167.678 226.307 170.311 227.01L176.342 228.622C176.5 228.664 176.594 228.826 176.552 228.983C175.846 231.609 173.14 233.167 170.507 232.463L164.476 230.852C164.318 230.809 164.224 230.648 164.267 230.49Z" fill="white" fill-opacity="0.1"/>
</g>
</g>
<path d="M270.648 25.3516H269.281L268.469 30H266.18L268.156 18.625H270.445L269.648 23.1797H270.602L274.094 18.625H277.031L272.594 24.125L275.297 30H272.68L270.648 25.3516ZM287.234 18.625L285.266 30H282.969L284.609 20.5234H281.695L280.617 25.5312C280.253 27.0938 279.737 28.224 279.07 28.9219C278.409 29.6146 277.568 29.974 276.547 30H275.594L275.867 28.1172L276.211 28.0859C276.836 28.013 277.349 27.6927 277.75 27.125C278.151 26.5521 278.453 25.6536 278.656 24.4297L278.797 23.6094L279.82 18.625H287.234ZM292.453 23.9922L295.391 18.625H297.969L292.641 27.7812C292.172 28.6406 291.669 29.2578 291.133 29.6328C290.602 30.0026 289.979 30.1875 289.266 30.1875L288.383 30.1484L288.555 28.25L289.117 28.3047C289.477 28.3047 289.781 28.224 290.031 28.0625C290.281 27.901 290.518 27.6198 290.742 27.2188L291.039 26.7266L288.609 18.625H290.945L292.453 23.9922ZM306.055 20.5234H301.133L300.75 22.7266L302.242 22.7344C303.487 22.7396 304.464 23.0625 305.172 23.7031C305.88 24.3438 306.195 25.1953 306.117 26.2578C306.034 27.388 305.56 28.2943 304.695 28.9766C303.831 29.6589 302.729 30 301.391 30H297.172L299.148 18.625H306.383L306.055 20.5234ZM300.422 24.6172L299.812 28.1172L301.484 28.125C302.089 28.125 302.607 27.9557 303.039 27.6172C303.477 27.2734 303.74 26.8125 303.828 26.2344C303.896 25.7604 303.799 25.3802 303.539 25.0938C303.279 24.8021 302.885 24.6458 302.359 24.625L300.422 24.6172Z" fill="#EA001B"/>
<path d="M277.055 35.625L275.078 47H272.781L273.609 42.6719C272.969 42.8333 272.255 42.9089 271.469 42.8984C270.188 42.888 269.206 42.5443 268.523 41.8672C267.841 41.1849 267.568 40.2734 267.703 39.1328L268.289 35.625H270.578L270 39.1406C269.917 39.7708 269.997 40.237 270.242 40.5391C270.492 40.8359 270.935 40.9922 271.57 41.0078C272.122 41.0234 272.867 40.9583 273.805 40.8125L274.758 35.625H277.055ZM284.547 42.0703H280.188L279.656 45.1172H284.781L284.453 47H277.039L279.016 35.625H286.414L286.078 37.5234H280.977L280.5 40.2344H284.875L284.547 42.0703ZM290.766 35.625L292.164 43.8516L296.406 35.625H299.453L297.477 47H295.18L295.742 43.7578L296.852 38.6953L292.492 47H290.922L289.398 38.4062L288.664 44.0078L288.141 47H285.852L287.828 35.625H290.766ZM308.531 47H306.234L307.875 37.5234H303.477L301.828 47H299.539L301.516 35.625H310.5L308.531 47ZM319.102 35.625H321.477L319.5 47H317.203L318.492 39.5938L312.875 47H310.508L312.484 35.625H314.773L313.484 43.0391L319.102 35.625ZM326.109 47.1562C325.354 47.1406 324.688 46.9635 324.109 46.625C323.536 46.2812 323.081 45.7891 322.742 45.1484C322.409 44.5026 322.216 43.763 322.164 42.9297C322.107 42.0755 322.198 41.1641 322.438 40.1953C322.677 39.2266 323.062 38.375 323.594 37.6406C324.125 36.9062 324.747 36.3568 325.461 35.9922C326.18 35.6276 326.956 35.4531 327.789 35.4688C328.555 35.4844 329.224 35.6667 329.797 36.0156C330.37 36.3594 330.82 36.8568 331.148 37.5078C331.477 38.1536 331.664 38.888 331.711 39.7109C331.763 40.6276 331.664 41.5703 331.414 42.5391C331.164 43.5078 330.776 44.3464 330.25 45.0547C329.724 45.763 329.107 46.2943 328.398 46.6484C327.695 47.0026 326.932 47.1719 326.109 47.1562ZM329.352 41L329.414 40.2578C329.466 39.3307 329.341 38.6276 329.039 38.1484C328.742 37.6693 328.289 37.4193 327.68 37.3984C326.727 37.3672 325.969 37.7891 325.406 38.6641C324.849 39.5391 324.534 40.763 324.461 42.3359C324.409 43.2578 324.531 43.9688 324.828 44.4688C325.125 44.9635 325.586 45.2214 326.211 45.2422C327.029 45.2786 327.706 44.9609 328.242 44.2891C328.779 43.612 329.13 42.6562 329.297 41.4219L329.352 41ZM341.336 47H339.047L339.891 42.125H335.477L334.625 47H332.336L334.312 35.625H336.602L335.797 40.2344H340.219L341.016 35.625H343.305L341.336 47ZM347.953 47.1562C347.198 47.1406 346.531 46.9635 345.953 46.625C345.38 46.2812 344.924 45.7891 344.586 45.1484C344.253 44.5026 344.06 43.763 344.008 42.9297C343.951 42.0755 344.042 41.1641 344.281 40.1953C344.521 39.2266 344.906 38.375 345.438 37.6406C345.969 36.9062 346.591 36.3568 347.305 35.9922C348.023 35.6276 348.799 35.4531 349.633 35.4688C350.398 35.4844 351.068 35.6667 351.641 36.0156C352.214 36.3594 352.664 36.8568 352.992 37.5078C353.32 38.1536 353.508 38.888 353.555 39.7109C353.607 40.6276 353.508 41.5703 353.258 42.5391C353.008 43.5078 352.62 44.3464 352.094 45.0547C351.568 45.763 350.951 46.2943 350.242 46.6484C349.539 47.0026 348.776 47.1719 347.953 47.1562ZM351.195 41L351.258 40.2578C351.31 39.3307 351.185 38.6276 350.883 38.1484C350.586 37.6693 350.133 37.4193 349.523 37.3984C348.57 37.3672 347.812 37.7891 347.25 38.6641C346.693 39.5391 346.378 40.763 346.305 42.3359C346.253 43.2578 346.375 43.9688 346.672 44.4688C346.969 44.9635 347.43 45.2214 348.055 45.2422C348.872 45.2786 349.549 44.9609 350.086 44.2891C350.622 43.612 350.974 42.6562 351.141 41.4219L351.195 41ZM354.18 47L356.156 35.625L359.703 35.6328C361.021 35.638 362.01 35.9062 362.672 36.4375C363.333 36.9688 363.633 37.7161 363.57 38.6797C363.497 39.8307 362.833 40.6719 361.578 41.2031C362.031 41.3594 362.383 41.6536 362.633 42.0859C362.883 42.513 362.99 43.0182 362.953 43.6016C362.88 44.6745 362.458 45.5104 361.688 46.1094C360.922 46.7031 359.875 47 358.547 47H354.18ZM357.336 42.0469L356.797 45.1172L358.602 45.125C359.164 45.125 359.635 44.987 360.016 44.7109C360.396 44.4297 360.622 44.0521 360.695 43.5781C360.768 43.1094 360.703 42.7448 360.5 42.4844C360.302 42.2188 359.966 42.0755 359.492 42.0547L357.336 42.0469ZM357.617 40.3906L359.172 40.4062C359.75 40.3958 360.221 40.2604 360.586 40C360.956 39.7396 361.177 39.3776 361.25 38.9141C361.38 37.9974 360.898 37.5365 359.805 37.5312L358.117 37.5234L357.617 40.3906Z" fill="white"/>
<path d="M15 33.4385H22.1038V26.4174C20.6237 29.2146 17.8481 31.0324 15 31.7325C15 32.2617 15 33.4417 15 33.4417" fill="white"/>
<path d="M17.2712 29.9082C18.9381 29.0365 20.3224 27.7109 21.2632 26.0854C21.2632 26.0854 21.2632 25.2768 21.2632 25.2571C19.7681 24.7698 18.404 23.9492 17.2745 22.8575C17.2745 24.7837 17.2745 29.9181 17.2745 29.9181" fill="white"/>
<path d="M17.6536 19.2944C17.6536 19.2944 17.6536 21.4375 17.6536 21.9733C18.1984 22.5092 18.7984 22.9863 19.4436 23.3966V20.5237C18.7996 20.1854 18.1977 19.7728 17.6503 19.2944" fill="white"/>
<path d="M28.1857 21.5427C28.1639 21.3652 28.0895 21.1982 27.9721 21.0629C27.8547 20.9277 27.6995 20.8304 27.5265 20.7834C27.3277 20.7206 27.1216 20.6842 26.9133 20.6749C26.7684 20.6666 26.6231 20.6666 26.4782 20.6749H26.4189V19.8631H27.1045L27.8594 19.9715L27.8891 19.2878H25.575L25.6673 20.1392V22.0456L25.5585 22.9496H26.4222C26.5342 22.9496 26.6529 22.9496 26.7683 22.9496H26.8672C27.2366 22.9607 27.5987 22.8446 27.8924 22.6209C28.0327 22.4832 28.1338 22.3108 28.1853 22.1214C28.2369 21.9319 28.237 21.7322 28.1857 21.5427ZM27.4243 21.7301C27.4298 21.8012 27.4298 21.8726 27.4243 21.9437C27.4152 22.022 27.3853 22.0965 27.3378 22.1594C27.2903 22.2224 27.2269 22.2716 27.154 22.302C26.9282 22.388 26.6837 22.4129 26.4452 22.3743V21.2962C26.7029 21.2413 26.9714 21.2677 27.2133 21.3718C27.2839 21.4034 27.3433 21.4553 27.3838 21.521C27.4244 21.5866 27.4442 21.6629 27.4408 21.7399" fill="white"/>
<path d="M30.5163 19.7118L30.4043 19.2582H29.6362L29.5472 19.656L28.6176 22.0686L28.2088 22.9331H29.0164L29.1582 22.2757L29.3527 21.7761H30.5097L30.7767 22.4138L30.9185 22.9266H31.9602L31.6075 22.3152L30.5163 19.7118ZM30.2889 21.2305H29.5571C29.6263 21.0562 29.7021 20.8787 29.7746 20.7045C29.8472 20.5303 29.8867 20.4449 29.9395 20.3167L30.2889 21.2305Z" fill="white"/>
<path d="M37.9861 22.943H39.0475L37.3597 21.0365L38.942 19.2944H38.0091L37.7454 19.679C37.7454 19.679 37.0169 20.4613 36.6312 20.8853V19.9387L36.74 19.2812H35.7676L35.8269 19.9387V22.1903L35.7676 22.9364H36.7565L36.6312 22.2001V21.2929L37.9861 22.943Z" fill="white"/>
<path d="M35.1083 21.8451C35.1083 21.6019 35.1083 19.9551 35.1083 19.9551L35.194 19.2977H34.2314L34.3105 19.9321C34.3105 19.9321 34.3105 20.412 34.3105 20.698H32.9491C32.9262 20.278 32.9595 19.8568 33.048 19.4456L33.0875 19.2977H32.0986V19.4325C32.0986 19.4785 32.1613 19.988 32.1711 20.2213C32.1711 20.7144 32.1711 21.2074 32.1711 21.7005V21.809C32.1711 22.0161 32.1217 22.6504 32.1019 22.7622L32.0722 22.9068H33.0414L33.0249 22.7721L32.9985 22.5288C32.9722 22.3415 32.9491 22.1607 32.9392 21.9799C32.9293 21.7991 32.9392 21.6085 32.9392 21.4244V21.2962H34.327C34.327 21.3849 34.327 21.477 34.327 21.5657C34.3537 21.9682 34.3215 22.3723 34.2314 22.7655L34.1919 22.9167H35.2039L35.1775 22.7754C35.1264 22.468 35.1032 22.1566 35.1083 21.8451Z" fill="white"/>
<path d="M47.2556 24.741L47.2853 24.5964H45.2151V24.7344C45.291 25.3524 45.3437 25.9309 45.3767 26.5061C45.403 26.9203 45.3964 27.3443 45.3767 27.7552C45.3767 27.9031 45.3767 28.0477 45.3767 28.1957H41.533C41.4659 27.041 41.5535 25.8825 41.7934 24.7509L41.8297 24.5997H39.7002V24.7377C39.7002 24.7377 39.8617 26.1281 39.8815 26.7822C39.9211 28.0412 39.9112 29.3264 39.8815 30.5689V30.8647C39.8815 31.4038 39.7529 33.0539 39.6969 33.3497L39.6672 33.4943H41.7209V33.3596C41.6978 33.1459 41.6682 32.9323 41.6418 32.7022C41.5825 32.2321 41.5198 31.7489 41.4935 31.2723C41.4671 30.7957 41.4737 30.3059 41.4935 29.8359C41.4935 29.6617 41.4935 29.4907 41.4935 29.3165H45.4327C45.4327 29.6124 45.4327 29.9082 45.4327 30.1975C45.4981 31.2473 45.4127 32.301 45.1789 33.3267L45.1393 33.4812H47.2754L47.249 33.3366C47.1088 32.5434 47.0415 31.7391 47.048 30.9337C47.048 30.2763 47.048 27.364 47.0743 26.5587C47.0843 25.9437 47.1427 25.3304 47.249 24.7246" fill="white"/>
<path d="M34.6369 32.4096V29.2574C35.6258 29.2837 37.5114 29.4316 37.5311 29.4349H37.6597V27.9886L34.6303 28.1595V25.6844C35.5368 25.6844 37.2246 25.6646 38.1014 25.9375L38.2399 25.9802L38.2597 25.8389C38.2886 25.4647 38.2886 25.0889 38.2597 24.7147V24.6029H32.8008L32.8238 24.741C32.973 25.9016 33.0259 27.0724 32.9821 28.2417C32.9821 28.5046 32.9821 28.7709 32.9821 29.0371C32.9985 30.7464 32.8008 33.3333 32.8008 33.376V33.5042L38.2333 33.5305V33.4122C38.2333 33.1229 38.2695 32.3505 38.2827 32.2387V32.0743L38.1212 32.1072C36.9664 32.3359 35.7911 32.446 34.6138 32.4359" fill="white"/>
<path d="M29.9955 28.5112L30.0713 28.4619C30.5625 28.1332 31.1295 27.6401 31.1624 26.8184C31.2127 26.2954 31.0615 25.773 30.7394 25.3573C30.4173 24.9415 29.9486 24.6636 29.4285 24.5799C28.3954 24.3508 27.3207 24.3893 26.3068 24.6917C25.7695 24.8396 25.6772 24.8856 25.6936 25.0204C25.7266 25.2538 25.7728 25.5167 25.8156 25.7698C25.8486 25.9572 25.8815 26.1446 25.9112 26.3286C25.916 26.3613 25.93 26.3919 25.9516 26.4169C25.9732 26.442 26.0015 26.4604 26.0332 26.47C26.0652 26.4759 26.0983 26.4732 26.129 26.4622C26.1597 26.4513 26.1869 26.4324 26.2079 26.4075L26.2771 26.3319C26.543 26.0581 26.8658 25.8458 27.223 25.7101C27.5801 25.5743 27.9628 25.5184 28.344 25.5463C28.5977 25.5409 28.8458 25.6215 29.0476 25.775C29.2494 25.9284 29.393 26.1457 29.4549 26.3911C29.5999 27.0485 29.356 27.6434 28.8351 27.8735C28.5512 27.994 28.2533 28.079 27.9484 28.1266C27.6188 28.1891 26.9595 28.2318 26.9397 28.2318H26.821L26.8672 29.3724H26.9858C26.9858 29.3724 27.5858 29.3527 28.0803 29.3527C28.5337 29.3474 28.9832 29.4381 29.3988 29.6189C29.5546 29.7099 29.69 29.8319 29.7966 29.9772C29.9032 30.1225 29.9788 30.2881 30.0186 30.4637C30.1175 30.9666 30.2032 32.173 28.8879 32.4589C27.7473 32.7087 26.821 32.4589 26.1288 31.7161L25.9409 31.5155L25.8684 31.4399C25.845 31.4147 25.8142 31.3976 25.7804 31.3911C25.7466 31.3846 25.7116 31.3891 25.6805 31.4038C25.6514 31.4126 25.6256 31.4298 25.6062 31.4532C25.5869 31.4766 25.5749 31.5051 25.5717 31.5353L25.5354 31.8147C25.5024 32.0842 25.4728 32.3406 25.4332 32.5937C25.4154 32.6857 25.4299 32.7811 25.4743 32.8637C25.5187 32.9464 25.5904 33.0112 25.6772 33.0473C26.4443 33.474 27.3073 33.7002 28.1857 33.7047C28.3605 33.7047 28.5352 33.7047 28.7132 33.6817C29.4208 33.6242 30.0949 33.3563 30.6482 32.9125C31.0072 32.6517 31.2927 32.3028 31.4769 31.8997C31.6611 31.4966 31.7379 31.053 31.6997 30.6116C31.6074 29.5959 31.0405 28.8958 29.9823 28.5309" fill="white"/>
<path d="M56.0439 29.6156V28.5309C55.9991 27.2648 56.0708 25.9973 56.2582 24.7443L56.2846 24.6029H54.1551L54.1814 24.7443C54.254 25.1223 54.3133 25.5266 54.3661 25.944C54.3773 25.9902 54.3769 26.0383 54.3648 26.0843C54.3527 26.1302 54.3293 26.1723 54.2968 26.207C53.6178 26.9302 52.9552 27.6664 52.319 28.3764C51.7355 29.0338 51.1322 29.6912 50.5158 30.3487C50.5158 29.7931 50.5158 29.2376 50.5158 28.7051C50.4861 27.341 50.4631 26.0525 50.7993 24.7607L50.8389 24.6095H48.6566L48.7028 24.7673C48.8726 25.4203 48.9426 26.0952 48.9104 26.7691V27.4265C48.9104 28.5835 48.9104 29.7833 48.9104 30.96C48.9104 31.1375 48.9104 31.315 48.9104 31.4893C48.9335 31.8175 48.9335 32.1471 48.9104 32.4754C48.885 32.6746 48.8475 32.8722 48.7984 33.067C48.7753 33.1623 48.7555 33.2544 48.7324 33.3497L48.7028 33.4943H50.8059L50.7828 33.3563C50.7367 33.067 50.707 32.7811 50.6773 32.5017C50.6773 32.3406 50.6411 32.173 50.6213 32.0152C50.6166 31.9394 50.6401 31.8645 50.6872 31.8048C51.2872 31.1474 51.8772 30.49 52.4475 29.8655C53.1068 29.1456 53.7661 28.4027 54.4518 27.6697V27.89C54.4518 28.2187 54.4518 28.5474 54.4518 28.8761C54.4518 29.2705 54.4518 29.6682 54.4518 30.0561C54.4518 30.6511 54.4518 31.2657 54.4518 31.8673C54.4281 32.206 54.384 32.5429 54.3199 32.8764C54.2935 33.0309 54.2672 33.1854 54.2441 33.3431L54.2243 33.4812H56.3175L56.2912 33.3398C56.1042 32.1033 56.0325 30.8522 56.0769 29.6025" fill="white"/>
<path d="M61.4204 25.7863C61.4204 25.7863 61.4204 25.7402 61.4204 25.7107L64.1103 26.0394L63.9389 24.5701H57.2175L57.0691 26.0394L59.9502 25.7107V25.8652C59.9502 26.9795 59.9502 31.1244 59.9502 31.3216L59.6733 33.4943H61.7138L61.4567 31.3611C61.4567 31.3216 61.4303 27.6237 61.4237 25.7731" fill="white"/>
<rect x="73.0784" y="15" width="0.854086" height="25.5496" fill="#C4C4C4"/>
<g clip-path="url(#clip0)">
<path d="M87.6302 22.2169C88.5733 24.6032 87.0356 26.1349 85.5039 27.6691C84.0785 29.2366 82.8228 30.866 85.3483 33.7984C84.4049 31.4124 85.9429 29.8804 87.4733 28.3478C88.9 26.7768 90.1557 25.1496 87.6302 22.2169Z" fill="white"/>
<path d="M85.3483 19.1652C86.2929 21.5524 84.7559 23.0832 83.223 24.6164C81.7978 26.1852 80.5425 27.8146 83.0689 30.747C82.1249 28.3591 83.6625 26.8287 85.1939 25.2954C86.62 23.7263 87.8741 22.0975 85.3483 19.1652Z" fill="white"/>
<path d="M124.104 28.6158V33.4933H126.247V31.7078H128.601V30.6401H126.247V29.6834H130.916V33.4933H133.059V29.6834H135V28.6158H124.104Z" fill="white"/>
<path d="M119.508 32.4348V31.5893H122.301V30.5207H119.508V29.6834H123.096V28.6158H117.366V33.4933H123.14V32.4348H119.508Z" fill="white"/>
<path d="M96.9122 28.6158H90.9755V29.6834H92.8727V33.4933H95.015V29.6834H96.9122V28.6158Z" fill="white"/>
<path d="M98.5343 31.6452L99.5256 29.7573L100.474 31.6452H98.5343ZM101.142 28.6158H98.8456L96.1717 33.4933H97.5641L98.0037 32.656H101.006L101.445 33.4933H103.817L101.142 28.6158Z" fill="white"/>
<path d="M114.737 28.6158V31.0542L111.31 28.6158H109.648V33.4933H111.114V30.8098L114.632 33.4933H116.203V28.6158H114.737Z" fill="white"/>
<path d="M108.92 28.6158H103.108V29.6834H105.004V33.4933H107.147V29.6834H108.92V28.6158Z" fill="white"/>
</g>
<g clip-path="url(#clip1)">
<path d="M361.589 215.613C363.58 212.432 364.636 208.755 364.636 205.003V204.997C364.636 201.245 363.58 197.568 361.589 194.387C359.598 191.207 356.752 188.65 353.376 187.01C350.001 185.371 346.232 184.714 342.5 185.114C338.769 185.515 335.226 186.958 332.275 189.277C332.275 189.277 332.275 189.277 332.275 189.277L332.275 189.277C329.892 191.147 327.966 193.534 326.643 196.259C325.319 198.983 324.633 201.973 324.636 205.002C324.634 208.03 325.32 211.019 326.644 213.743C327.967 216.466 329.893 218.853 332.275 220.723L332.275 220.723H332.275C335.226 223.042 338.769 224.485 342.5 224.886C346.232 225.286 350.001 224.629 353.376 222.99C356.752 221.35 359.598 218.793 361.589 215.613Z" fill="white" fill-opacity="0.3"/>
<path d="M333.358 189.275C333.06 189.509 332.77 189.751 332.486 190C332.769 189.751 333.06 189.509 333.358 189.275H333.358C335.739 191.147 337.665 193.535 338.988 196.259C340.312 198.983 341 201.972 341 205C341 208.029 340.312 211.018 338.988 213.742C337.665 216.466 335.739 218.854 333.358 220.725H333.358L333.358 220.725C330.408 223.044 326.864 224.486 323.133 224.886C319.402 225.286 315.633 224.629 312.258 222.988C308.883 221.348 306.037 218.791 304.047 215.61C302.056 212.43 301 208.753 301 205C301 201.247 302.056 197.57 304.047 194.39C306.037 191.209 308.883 188.652 312.258 187.012C315.633 185.371 319.402 184.714 323.133 185.114C326.864 185.514 330.408 186.956 333.358 189.275Z" fill="white" fill-opacity="0.3"/>
</g>
<defs>
<linearGradient id="paint0_linear" x1="372.226" y1="3.29982e-05" x2="0.628507" y2="240.969" gradientUnits="userSpaceOnUse">
<stop stop-color="#172F3D"/>
<stop offset="1"/>
</linearGradient>
<clipPath id="clip0">
<rect width="53.3808" height="14.9705" fill="white" transform="translate(81.6193 18.8325)"/>
</clipPath>
<clipPath id="clip1">
<rect width="63.6364" height="40" fill="white" transform="translate(301 185)"/>
</clipPath>
</defs>
</svg>
