<svg width="40" height="40" viewBox="0 0 40 40" fill="none" xmlns="http://www.w3.org/2000/svg">
<path d="M19.4579 23.768C19.5989 23.916 19.7949 24 19.9999 24C20.2049 24 20.4009 23.916 20.5419 23.768L25.7919 18.268C26.2469 17.792 25.9089 17 25.2499 17H22.4999V11.25C22.4999 10.561 21.9389 10 21.2499 10H18.7499C18.0609 10 17.4999 10.561 17.4999 11.25V17H14.7499C14.0909 17 13.7529 17.792 14.2079 18.268L19.4579 23.768Z" fill="#16B374"/>
<path d="M9.75 30H30.25C31.215 30 32 29.215 32 28.25V27.75C32 26.785 31.215 26 30.25 26H9.75C8.785 26 8 26.785 8 27.75V28.25C8 29.215 8.785 30 9.75 30Z" fill="#16B374"/>
</svg>
