<svg width="40" height="40" viewBox="0 0 40 40" fill="none" xmlns="http://www.w3.org/2000/svg">
<path d="M16.7273 20.1818C16.7273 18.3763 18.1946 16.9091 20.0001 16.9091C21.8055 16.9091 23.2728 18.3763 23.2728 20.1818C23.2728 21.9873 21.8055 23.4545 20.0001 23.4545C18.1946 23.4545 16.7273 21.9873 16.7273 20.1818Z" fill="#16B374"/>
<path fill-rule="evenodd" clip-rule="evenodd" d="M8 20.1818C9.88729 15.3927 14.5454 12 20 12C25.46 12 30.1127 15.3927 32 20.1818C30.1127 24.9709 25.46 28.3636 20 28.3636C14.5454 28.3636 9.88729 24.9709 8 20.1818ZM14.5454 20.1818C14.5454 23.1927 16.9891 25.6363 20 25.6363C23.0109 25.6363 25.4546 23.1927 25.4546 20.1818C25.4546 17.1709 23.0109 14.7273 20 14.7273C16.9891 14.7273 14.5454 17.1709 14.5454 20.1818Z" fill="#16B374"/>
</svg>
