<svg width="24" height="24" viewBox="0 0 24 24" fill="none" xmlns="http://www.w3.org/2000/svg">
<g clip-path="url(#clip0)">
<path d="M13.5 1.49997C8.2208 1.49997 3.85159 5.42065 3.11985 10.4999H0L4.50001 15L9.00002 10.4999H6.15162C6.84859 7.081 9.87836 4.49995 13.5 4.49995C17.6353 4.49995 21 7.8647 21 11.9999C21 16.1352 17.6353 19.5 13.5 19.5C11.094 19.5 8.81689 18.3325 7.40917 16.3784L4.97461 18.1304C6.94481 20.8667 10.1316 22.5 13.5 22.5C19.2898 22.5 24 17.7891 24 12C24 6.21091 19.2898 1.49997 13.5 1.49997Z" fill="#818496"/>
<path d="M12 7.5V13.5996L16.478 16.2862L18.022 13.7139L15 11.9004V7.50005L12 7.5Z" fill="#818496"/>
</g>
<defs>
<clipPath id="clip0">
<rect width="24" height="24" fill="white"/>
</clipPath>
</defs>
</svg>
