<svg width="24" height="24" viewBox="0 0 24 24" fill="none" xmlns="http://www.w3.org/2000/svg">
<path d="M22.4338 10.134C22.4333 10.1335 22.4328 10.133 22.4324 10.1325L13.866 1.56653C13.5009 1.20123 13.0154 1 12.4991 1C11.9827 1 11.4972 1.20107 11.1319 1.56637L2.57007 10.1281C2.56719 10.1309 2.56431 10.134 2.56142 10.1369C1.81161 10.891 1.81289 12.1146 2.56511 12.8668C2.90877 13.2106 3.36267 13.4098 3.84797 13.4306C3.86767 13.4325 3.88754 13.4335 3.90757 13.4335H4.24899V19.7376C4.24899 20.985 5.26397 22 6.51174 22H9.86316C10.2028 22 10.4784 21.7246 10.4784 21.3848V16.4424C10.4784 15.8731 10.9414 15.4101 11.5107 15.4101H13.4874C14.0567 15.4101 14.5197 15.8731 14.5197 16.4424V21.3848C14.5197 21.7246 14.7951 22 15.135 22H18.4864C19.7341 22 20.7491 20.985 20.7491 19.7376V13.4335H21.0657C21.5819 13.4335 22.0674 13.2324 22.4328 12.8671C23.1859 12.1136 23.1862 10.888 22.4338 10.134Z" fill="#16B374"/>
</svg>
