<svg width="40" height="40" viewBox="0 0 40 40" fill="none" xmlns="http://www.w3.org/2000/svg">
<path fill-rule="evenodd" clip-rule="evenodd" d="M14.2091 7H14.4563C14.6944 7.084 14.9218 7.14947 15.1013 7.29991C15.3509 7.50625 15.5572 7.82372 15.6204 8.21455C15.6928 8.68446 15.3043 9.19071 15.1245 9.55248C14.0914 11.6162 13.2702 13.7147 12.897 16.3349C12.7489 17.3798 12.6745 18.5081 12.6745 19.678C12.6745 23.4262 13.4104 26.0392 14.5555 28.5917C14.8167 29.1736 15.1443 29.799 15.422 30.4233C15.5222 30.6518 15.6435 30.8922 15.6435 31.1147C15.6448 31.5198 15.2144 32.0832 14.8273 32.2301C14.4798 32.363 13.9128 32.3421 13.5909 32.1553C13.2692 31.9698 13.0044 31.3773 12.7733 30.9421C12.2662 29.9927 11.8966 29.1482 11.5105 28.1436C10.9204 26.604 10.5587 25.0558 10.2486 23.3188C10.041 22.1548 10 20.8377 10 19.5054C10 18.1592 10.0899 16.9077 10.2989 15.7434C10.5005 14.6035 10.763 13.5186 11.0893 12.4713C11.5511 10.9988 12.1624 9.50586 12.897 8.19109C13.0847 7.85281 13.4814 7.18682 13.8381 7.07605C13.976 7.03175 14.0633 7.12037 14.2091 7Z" fill="#16B374"/>
<path fill-rule="evenodd" clip-rule="evenodd" d="M19.3326 29.754C19.1624 29.7748 18.7181 29.7692 18.4662 29.6317C18.207 29.4868 17.9435 29.0331 17.7488 28.6644C17.1749 27.5808 16.6281 26.3709 16.2631 25.1742C16.0099 24.3472 15.7791 23.3974 15.6436 22.4759C15.4991 21.4693 15.4059 20.4205 15.4466 19.3544C15.5669 16.124 16.2863 13.5834 17.4023 11.3332C17.7511 10.6298 18.2129 9.70922 18.9617 9.57631C19.854 9.41891 20.4662 10.1725 20.4718 10.8653C20.4742 11.1943 20.2596 11.6014 20.0999 11.9304C19.6626 12.8238 19.1564 13.8529 18.8367 14.9005C18.5921 15.7017 18.4205 16.3514 18.2923 17.1775C18.1723 17.9694 18.0741 18.8467 18.0939 19.801C18.1534 22.5903 18.7984 24.78 19.7036 26.6593C19.8656 26.9952 19.9832 27.2505 20.1489 27.6251C20.3085 27.9843 20.5036 28.3798 20.4718 28.7147C20.4196 29.2455 19.9075 29.6829 19.3326 29.754Z" fill="#16B374"/>
<path fill-rule="evenodd" clip-rule="evenodd" d="M24.1355 27.2534C24.0128 27.259 23.6945 27.265 23.4905 27.1801C23.0111 26.9816 22.6425 26.2724 22.3767 25.7426C21.5218 24.0512 20.9423 22.159 20.9423 19.6277C20.9423 17.0845 21.537 15.3055 22.4257 13.5384C22.7043 12.9832 23.0716 12.3311 23.5652 12.1512C23.8647 12.0405 24.2006 12.0441 24.4819 12.1512C24.9041 12.3113 25.319 12.8278 25.3471 13.2398C25.3659 13.5103 25.2271 13.7729 25.0998 14.0576C24.7874 14.7596 24.4317 15.414 24.1586 16.2367C23.9791 16.7767 23.83 17.3669 23.7378 17.8941C23.6363 18.4846 23.544 19.104 23.5652 19.8013C23.6174 21.6925 24.1937 23.3769 24.8525 24.7535C25.0416 25.1454 25.4449 25.7859 25.3226 26.3623C25.2654 26.6304 24.7537 27.1506 24.4819 27.23C24.3418 27.2696 24.2532 27.2488 24.1355 27.2534Z" fill="#16B374"/>
<path fill-rule="evenodd" clip-rule="evenodd" d="M28.8863 24.8769C28.1084 25.0194 27.761 24.521 27.4261 24.0591C26.6856 23.0386 26.1877 21.7798 26.0896 20.1724C25.9742 18.2638 26.5444 16.5456 27.3514 15.3941C27.6056 15.0324 27.9207 14.6336 28.3918 14.5029C29.2503 14.2639 29.7621 15.0079 29.9766 15.5912C30.0606 15.8247 29.9009 16.2341 29.7786 16.4837C29.4262 17.2013 28.9316 17.7261 28.8129 18.6615C28.7267 19.3265 28.723 20.0007 28.8129 20.717C28.9214 21.5873 29.3366 22.1392 29.6794 22.7725C29.8381 23.0678 30.049 23.3068 29.9766 23.7886C29.9277 24.1034 29.6804 24.4499 29.4566 24.6285C29.3201 24.736 29.1161 24.8349 28.8863 24.8769Z" fill="#16B374"/>
</svg>
