<svg width="40" height="40" viewBox="0 0 40 40" fill="none" xmlns="http://www.w3.org/2000/svg">
<rect x="5.00244" y="12" width="30" height="15" rx="2" fill="#16B374"/>
<path d="M15.1904 18.0977C15.5458 17.742 15.5458 17.1678 15.1904 16.8124C15.0132 16.6352 14.7802 16.5461 14.5476 16.5461C14.315 16.5461 14.0824 16.6352 13.9051 16.8124L12.7297 17.9875L11.5542 16.8124C11.377 16.6352 11.1444 16.5461 10.9118 16.5461C10.6792 16.5461 10.4462 16.6352 10.2689 16.8124C9.91361 17.1678 9.91361 17.742 10.2689 18.0977L11.4444 19.2728L10.2689 20.4482C9.91361 20.8035 9.91361 21.3782 10.2689 21.7335C10.6235 22.0888 11.1997 22.0888 11.5542 21.7335L12.7297 20.558L13.9051 21.7335C14.2596 22.0888 14.8359 22.0888 15.1904 21.7335C15.5458 21.3782 15.5458 20.8035 15.1904 20.4482L14.015 19.2728L15.1904 18.0977Z" fill="white"/>
<path d="M22.4632 18.0973C22.8186 17.7415 22.8186 17.1672 22.4632 16.8118C22.2859 16.6346 22.0533 16.5455 21.8203 16.5455C21.5876 16.5455 21.355 16.6346 21.1777 16.8118L20.0022 17.987L18.827 16.8118C18.6497 16.6346 18.4171 16.5455 18.1841 16.5455C17.9515 16.5455 17.7188 16.6346 17.5416 16.8118C17.1862 17.1672 17.1862 17.7415 17.5416 18.0973L18.7167 19.2724L17.5416 20.448C17.1862 20.8034 17.1862 21.3781 17.5416 21.7335C17.8961 22.0888 18.4725 22.0888 18.827 21.7335L20.0022 20.5579L21.1777 21.7335C21.5323 22.0888 22.1086 22.0888 22.4632 21.7335C22.8186 21.3781 22.8186 20.8034 22.4632 20.448L21.2876 19.2724L22.4632 18.0973Z" fill="white"/>
<path d="M29.7359 18.0973C30.0913 17.7415 30.0913 17.1672 29.7359 16.8118C29.5586 16.6346 29.326 16.5455 29.0934 16.5455C28.8603 16.5455 28.6277 16.6346 28.4505 16.8118L27.2753 17.987L26.0997 16.8118C25.9224 16.6346 25.6898 16.5455 25.4572 16.5455C25.2242 16.5455 24.9915 16.6346 24.8143 16.8118C24.4589 17.1672 24.4589 17.7415 24.8143 18.0973L25.9898 19.2724L24.8143 20.448C24.4589 20.8034 24.4589 21.3781 24.8143 21.7335C25.1688 22.0888 25.7452 22.0888 26.0997 21.7335L27.2753 20.5579L28.4505 21.7335C28.805 22.0888 29.3813 22.0888 29.7359 21.7335C30.0913 21.3781 30.0913 20.8034 29.7359 20.448L28.5607 19.2724L29.7359 18.0973Z" fill="white"/>
</svg>
