<svg width="40" height="40" viewBox="0 0 40 40" fill="none" xmlns="http://www.w3.org/2000/svg">
<rect x="8" y="14" width="24" height="12" rx="2" fill="#16B374"/>
<path d="M16.1504 18.8782C16.4347 18.5936 16.4347 18.1342 16.1504 17.8499C16.0086 17.7081 15.8222 17.6369 15.6361 17.6369C15.45 17.6369 15.264 17.7081 15.1222 17.8499L14.1818 18.79L13.2414 17.8499C13.0996 17.7081 12.9136 17.6369 12.7275 17.6369C12.5414 17.6369 12.355 17.7081 12.2132 17.8499C11.9289 18.1342 11.9289 18.5936 12.2132 18.8782L13.1536 19.8182L12.2132 20.7586C11.9289 21.0428 11.9289 21.5025 12.2132 21.7868C12.4968 22.0711 12.9578 22.0711 13.2414 21.7868L14.1818 20.8464L15.1222 21.7868C15.4058 22.0711 15.8668 22.0711 16.1504 21.7868C16.4347 21.5025 16.4347 21.0428 16.1504 20.7586L15.21 19.8182L16.1504 18.8782Z" fill="white"/>
<path d="M21.9686 18.8778C22.2529 18.5932 22.2529 18.1338 21.9686 17.8495C21.8268 17.7077 21.6407 17.6364 21.4543 17.6364C21.2682 17.6364 21.0821 17.7077 20.9403 17.8495L19.9998 18.7896L19.0597 17.8495C18.9179 17.7077 18.7318 17.6364 18.5454 17.6364C18.3593 17.6364 18.1732 17.7077 18.0313 17.8495C17.747 18.1338 17.747 18.5932 18.0313 18.8778L18.9715 19.818L18.0313 20.7584C17.747 21.0427 17.747 21.5025 18.0313 21.7868C18.315 22.0711 18.7761 22.0711 19.0597 21.7868L19.9998 20.8463L20.9403 21.7868C21.2239 22.0711 21.685 22.0711 21.9686 21.7868C22.2529 21.5025 22.2529 21.0427 21.9686 20.7584L21.0282 19.818L21.9686 18.8778Z" fill="white"/>
<path d="M27.7868 18.8778C28.0711 18.5932 28.0711 18.1338 27.7868 17.8495C27.6449 17.7077 27.4588 17.6364 27.2728 17.6364C27.0863 17.6364 26.9002 17.7077 26.7584 17.8495L25.8183 18.7896L24.8778 17.8495C24.736 17.7077 24.5499 17.6364 24.3638 17.6364C24.1774 17.6364 23.9913 17.7077 23.8495 17.8495C23.5652 18.1338 23.5652 18.5932 23.8495 18.8778L24.7899 19.818L23.8495 20.7584C23.5652 21.0427 23.5652 21.5025 23.8495 21.7868C24.1331 22.0711 24.5942 22.0711 24.8778 21.7868L25.8183 20.8463L26.7584 21.7868C27.042 22.0711 27.5031 22.0711 27.7868 21.7868C28.0711 21.5025 28.0711 21.0427 27.7868 20.7584L26.8466 19.818L27.7868 18.8778Z" fill="white"/>
</svg>
