<svg width="28" height="30" viewBox="0 0 28 30" fill="none" xmlns="http://www.w3.org/2000/svg">
<path d="M9.6875 2.5C6.41375 2.5 3.75 5.16375 3.75 8.4375V26.25H3.4375C1.54125 26.25 0 24.7087 0 22.8125V3.4375C0 1.54125 1.54125 0 3.4375 0H17.8125C19.3813 0 20.6925 1.06125 21.1037 2.5H9.6875Z" fill="#16B374"/>
<path fill-rule="evenodd" clip-rule="evenodd" d="M9.6875 5H24.0625C25.9588 5 27.5 6.54125 27.5 8.4375V26.5625C27.5 28.4587 25.9588 30 24.0625 30H9.6875C7.79125 30 6.25 28.4587 6.25 26.5625V8.4375C6.25 6.54125 7.79125 5 9.6875 5ZM12.1875 26.25H21.5625C22.08 26.25 22.5 25.83 22.5 25.3125C22.5 24.795 22.08 24.375 21.5625 24.375H12.1875C11.67 24.375 11.25 24.795 11.25 25.3125C11.25 25.83 11.67 26.25 12.1875 26.25ZM12.1875 21.25H21.5625C22.08 21.25 22.5 20.83 22.5 20.3125C22.5 19.795 22.08 19.375 21.5625 19.375H12.1875C11.67 19.375 11.25 19.795 11.25 20.3125C11.25 20.83 11.67 21.25 12.1875 21.25ZM12.1875 16.875H21.5625C22.08 16.875 22.5 16.455 22.5 15.9375C22.5 15.42 22.08 15 21.5625 15H12.1875C11.67 15 11.25 15.42 11.25 15.9375C11.25 16.455 11.67 16.875 12.1875 16.875ZM12.1875 11.875H21.5625C22.08 11.875 22.5 11.455 22.5 10.9375C22.5 10.42 22.08 10 21.5625 10H12.1875C11.67 10 11.25 10.42 11.25 10.9375C11.25 11.455 11.67 11.875 12.1875 11.875Z" fill="#16B374"/>
</svg>
