<svg width="40" height="40" viewBox="0 0 40 40" fill="none" xmlns="http://www.w3.org/2000/svg">
<circle cx="20" cy="20" r="20" fill="#737373"/>
<path fill-rule="evenodd" clip-rule="evenodd" d="M17 21.5862L27.293 11.2932C27.684 10.9023 28.316 10.9023 28.707 11.2932C29.098 11.6843 29.098 12.3163 28.707 12.7072L18.414 23.0002H24C24.552 23.0002 25 23.4473 25 24.0002C25 24.5533 24.552 25.0002 24 25.0002H16C15.87 25.0002 15.74 24.9733 15.618 24.9232C15.373 24.8223 15.178 24.6272 15.077 24.3822C15.027 24.2603 15 24.1302 15 24.0002V16.0002C15 15.4472 15.448 15.0002 16 15.0002C16.552 15.0002 17 15.4472 17 16.0002V21.5862ZM12.5 29.0002C11.672 29.0002 11 28.3282 11 27.5002C11 26.6722 11.672 26.0002 12.5 26.0002C13.328 26.0002 14 26.6722 14 27.5002C14 28.3282 13.328 29.0002 12.5 29.0002Z" fill="white"/>
</svg>
