<svg width="24" height="24" viewBox="0 0 24 24" fill="none" xmlns="http://www.w3.org/2000/svg">
<path d="M9.03899 9.79597C9.34059 9.49349 9.34059 9.00109 9.03899 8.69843C8.89296 8.55193 8.69874 8.47121 8.49206 8.47121C8.28529 8.47121 8.09116 8.55193 7.94504 8.69852C7.79892 8.84502 7.71845 9.03995 7.71845 9.24729C7.71836 9.45463 7.79892 9.64947 7.94495 9.79606C8.09107 9.94265 8.28529 10.0234 8.49206 10.0234C8.69874 10.0234 8.89296 9.94265 9.03899 9.79597Z" fill="#818496"/>
<path d="M14.5081 12.977C14.3015 12.977 14.1072 13.0577 13.9611 13.2043C13.815 13.3509 13.7344 13.5457 13.7345 13.7531C13.7344 13.9602 13.815 14.1552 13.961 14.3017C14.1071 14.4483 14.3014 14.5291 14.5081 14.5291C14.7146 14.5291 14.9089 14.4483 15.055 14.3018C15.2012 14.1552 15.2817 13.9603 15.2817 13.7531C15.2817 13.5458 15.2012 13.3509 15.0551 13.2043C14.909 13.0576 14.7148 12.977 14.5081 12.977Z" fill="#818496"/>
<path fill-rule="evenodd" clip-rule="evenodd" d="M20.2302 7.56223L21.7936 9.79526C22.0175 10.1153 22.0626 10.5284 21.9124 10.8893L20.8586 13.4252L20.8791 16.2079C20.8821 16.6192 20.6641 17.0002 20.3086 17.205L17.917 18.5831L16.3107 20.832C16.0722 21.166 15.6739 21.3457 15.2657 21.3016L12.5331 21.0079L9.89372 21.9359C9.77096 21.979 9.64394 22 9.51801 22C9.23195 22 8.95117 21.8916 8.73667 21.688L6.72828 19.7819L4.11149 18.9518C3.71987 18.8276 3.42554 18.5011 3.34152 18.0978L2.77514 15.3775L1.20856 13.155C0.982697 12.8346 0.93696 12.42 1.08763 12.0577L2.14629 9.51248L2.12583 6.73005C2.12283 6.31884 2.34087 5.93782 2.69631 5.73294L5.08787 4.35463L6.69436 2.10564C6.93277 1.77178 7.33149 1.59199 7.73929 1.63614L10.4815 1.93096L13.0988 1.05818C13.4873 0.928561 13.9163 1.01896 14.2201 1.29508L16.2644 3.15201L18.8935 3.98611C19.2851 4.11026 19.5794 4.43673 19.6635 4.84009L20.2302 7.56223ZM6.98069 7.73099C6.57698 8.13599 6.35466 8.67455 6.35466 9.24731C6.35466 9.82016 6.57698 10.3586 6.98069 10.7636C7.38441 11.1686 7.92124 11.3917 8.49217 11.3917C9.06301 11.3917 9.59984 11.1685 10.0036 10.7636C10.8369 9.92761 10.8369 8.56718 10.0036 7.73099C9.59984 7.32598 9.06301 7.10295 8.49217 7.10295C7.92124 7.10295 7.38441 7.32598 6.98069 7.73099ZM8.51363 15.1906C8.68812 15.1906 8.8627 15.1239 8.9959 14.9903L14.9894 8.97748C15.2558 8.71031 15.2558 8.2772 14.9894 8.00993C14.7231 7.74284 14.2914 7.74284 14.025 8.00993L8.03135 14.0228C7.76503 14.29 7.76503 14.7231 8.03135 14.9903C8.16456 15.1239 8.33914 15.1906 8.51363 15.1906ZM14.5083 15.8973C15.0792 15.8973 15.616 15.6741 16.0196 15.2692C16.4233 14.8643 16.6457 14.3258 16.6458 13.7529C16.6458 13.1801 16.4233 12.6415 16.0196 12.2367C15.616 11.8316 15.0793 11.6086 14.5083 11.6086C13.9373 11.6086 13.4005 11.8317 12.9969 12.2366C12.5931 12.6415 12.3707 13.1801 12.3707 13.7529C12.3707 14.3257 12.5932 14.8642 12.9968 15.2691C13.4004 15.6742 13.9372 15.8973 14.5083 15.8973Z" fill="#818496"/>
</svg>
