<svg width="301" height="213" viewBox="0 0 301 213" fill="none" xmlns="http://www.w3.org/2000/svg">
<path d="M235 202.995C249.963 185.516 259 162.813 259 138C259 82.7715 214.228 38 159 38C103.772 38 59 82.7715 59 138C59 162.815 68.039 185.52 83.0041 203" stroke="white" stroke-opacity="0.05" stroke-width="20" stroke-linecap="round"/>
<path d="M234.996 203C249.961 185.52 259 162.815 259 138C259 113.187 249.963 90.4844 235 73.0048" stroke="#F3F5FA" stroke-width="3" stroke-linecap="round"/>
<path d="M83 73.0048C68.0373 90.4844 59 113.187 59 138C59 162.813 68.0373 185.516 83 202.995" stroke="#979797" stroke-width="10" stroke-linecap="round"/>
<path d="M94 62.0041C111.48 47.039 134.185 38 159 38C183.815 38 206.52 47.039 224 62.0041" stroke="#F3F5FA" stroke-width="3" stroke-linecap="round"/>
<path d="M94 62.0041C111.48 47.039 134.185 38 159 38C169.636 38 179.885 39.6605 189.5 42.7365" stroke="#FFD578" stroke-width="10" stroke-linecap="round"/>
<path d="M7.73242 146H6.44336V131.906L2.18945 133.485V132.282L7.51758 130.306H7.73242V146ZM13.8877 148.922L13.125 148.363C13.7767 147.49 14.1133 146.584 14.1348 145.646V143.98H15.3916V145.323C15.3916 146.813 14.8903 148.012 13.8877 148.922ZM19.0332 137.986L19.7959 130.359H27.6162V131.552H20.9023L20.3545 136.837C21.1924 136.264 22.1735 135.978 23.2979 135.978C24.7087 135.978 25.833 136.436 26.6709 137.353C27.5088 138.269 27.9277 139.49 27.9277 141.016C27.9277 142.663 27.5195 143.941 26.7031 144.851C25.8867 145.76 24.7373 146.215 23.2549 146.215C21.8942 146.215 20.7913 145.835 19.9463 145.076C19.1012 144.317 18.6178 143.254 18.4961 141.886H19.7314C19.8532 142.953 20.2148 143.762 20.8164 144.313C21.418 144.858 22.2308 145.13 23.2549 145.13C24.3721 145.13 25.2135 144.775 25.7793 144.066C26.3522 143.357 26.6387 142.348 26.6387 141.037C26.6387 139.891 26.32 138.957 25.6826 138.233C25.0452 137.51 24.1751 137.148 23.0723 137.148C22.4635 137.148 21.9336 137.227 21.4824 137.385C21.0312 137.535 20.555 137.832 20.0537 138.276L19.0332 137.986ZM29.7461 136.812C29.7461 136.135 29.9544 135.576 30.3711 135.133C30.793 134.685 31.3268 134.461 31.9727 134.461C32.6185 134.461 33.1497 134.685 33.5664 135.133C33.9883 135.576 34.1992 136.151 34.1992 136.859V137.414C34.1992 138.081 33.9909 138.638 33.5742 139.086C33.1628 139.529 32.6341 139.75 31.9883 139.75C31.3477 139.75 30.8138 139.531 30.3867 139.094C29.9596 138.656 29.7461 138.078 29.7461 137.359V136.812ZM30.5039 137.414C30.5039 137.898 30.6367 138.297 30.9023 138.609C31.1732 138.922 31.5352 139.078 31.9883 139.078C32.431 139.078 32.7826 138.922 33.043 138.609C33.3086 138.292 33.4414 137.883 33.4414 137.383V136.812C33.4414 136.328 33.306 135.93 33.0352 135.617C32.7643 135.299 32.4102 135.141 31.9727 135.141C31.5404 135.141 31.1862 135.297 30.9102 135.609C30.6393 135.922 30.5039 136.339 30.5039 136.859V137.414ZM35.4727 143.211C35.4727 142.534 35.681 141.974 36.0977 141.531C36.5195 141.089 37.0508 140.867 37.6914 140.867C38.332 140.867 38.8633 141.089 39.2852 141.531C39.7122 141.969 39.9258 142.547 39.9258 143.266V143.82C39.9258 144.497 39.7148 145.057 39.293 145.5C38.8763 145.943 38.3477 146.164 37.707 146.164C37.0664 146.164 36.5326 145.945 36.1055 145.508C35.6836 145.065 35.4727 144.49 35.4727 143.781V143.211ZM36.2227 143.82C36.2227 144.31 36.3555 144.711 36.6211 145.023C36.8919 145.336 37.2539 145.492 37.707 145.492C38.1549 145.492 38.5091 145.336 38.7695 145.023C39.0352 144.706 39.168 144.292 39.168 143.781V143.211C39.168 142.711 39.0326 142.31 38.7617 142.008C38.4961 141.701 38.1393 141.547 37.6914 141.547C37.2539 141.547 36.8997 141.701 36.6289 142.008C36.3581 142.315 36.2227 142.727 36.2227 143.242V143.82ZM32.2852 145.055L31.6992 144.68L37.2539 135.789L37.8398 136.164L32.2852 145.055Z" fill="white"/>
<path d="M151.813 12.4814H153.146C153.883 12.4814 154.528 12.3525 155.079 12.0947C155.631 11.8298 156.049 11.4717 156.336 11.0205C156.63 10.5622 156.776 10.0358 156.776 9.44141C156.776 8.4388 156.493 7.65462 155.928 7.08887C155.362 6.52311 154.549 6.24023 153.489 6.24023C152.487 6.24023 151.663 6.53743 151.019 7.13184C150.381 7.71908 150.062 8.49609 150.062 9.46289H148.773C148.773 8.65365 148.978 7.91602 149.386 7.25C149.794 6.57682 150.36 6.05762 151.083 5.69238C151.806 5.32715 152.608 5.14453 153.489 5.14453C154.907 5.14453 156.024 5.53125 156.841 6.30469C157.657 7.07812 158.065 8.13802 158.065 9.48438C158.065 10.2363 157.826 10.931 157.346 11.5684C156.873 12.1986 156.221 12.6712 155.391 12.9863C156.365 13.2585 157.102 13.7275 157.604 14.3936C158.105 15.0524 158.355 15.8402 158.355 16.7568C158.355 18.096 157.919 19.1738 157.045 19.9902C156.171 20.8066 155.004 21.2148 153.543 21.2148C152.612 21.2148 151.756 21.0286 150.976 20.6562C150.202 20.2839 149.601 19.7646 149.171 19.0986C148.748 18.4255 148.537 17.6449 148.537 16.7568H149.826C149.826 17.7523 150.174 18.5651 150.868 19.1953C151.563 19.8184 152.454 20.1299 153.543 20.1299C154.653 20.1299 155.516 19.847 156.132 19.2812C156.755 18.7083 157.066 17.8812 157.066 16.7998C157.066 15.7542 156.73 14.9557 156.057 14.4043C155.391 13.8529 154.406 13.5771 153.103 13.5771H151.813V12.4814ZM160.539 11.8125C160.539 11.1354 160.747 10.5755 161.164 10.1328C161.586 9.6849 162.12 9.46094 162.766 9.46094C163.411 9.46094 163.943 9.6849 164.359 10.1328C164.781 10.5755 164.992 11.151 164.992 11.8594V12.4141C164.992 13.0807 164.784 13.638 164.367 14.0859C163.956 14.5286 163.427 14.75 162.781 14.75C162.141 14.75 161.607 14.5312 161.18 14.0938C160.753 13.6562 160.539 13.0781 160.539 12.3594V11.8125ZM161.297 12.4141C161.297 12.8984 161.43 13.2969 161.695 13.6094C161.966 13.9219 162.328 14.0781 162.781 14.0781C163.224 14.0781 163.576 13.9219 163.836 13.6094C164.102 13.2917 164.234 12.8828 164.234 12.3828V11.8125C164.234 11.3281 164.099 10.9297 163.828 10.6172C163.557 10.2995 163.203 10.1406 162.766 10.1406C162.333 10.1406 161.979 10.2969 161.703 10.6094C161.432 10.9219 161.297 11.3385 161.297 11.8594V12.4141ZM166.266 18.2109C166.266 17.5339 166.474 16.974 166.891 16.5312C167.312 16.0885 167.844 15.8672 168.484 15.8672C169.125 15.8672 169.656 16.0885 170.078 16.5312C170.505 16.9688 170.719 17.5469 170.719 18.2656V18.8203C170.719 19.4974 170.508 20.0573 170.086 20.5C169.669 20.9427 169.141 21.1641 168.5 21.1641C167.859 21.1641 167.326 20.9453 166.898 20.5078C166.477 20.0651 166.266 19.4896 166.266 18.7812V18.2109ZM167.016 18.8203C167.016 19.3099 167.148 19.7109 167.414 20.0234C167.685 20.3359 168.047 20.4922 168.5 20.4922C168.948 20.4922 169.302 20.3359 169.562 20.0234C169.828 19.7057 169.961 19.2917 169.961 18.7812V18.2109C169.961 17.7109 169.826 17.3099 169.555 17.0078C169.289 16.7005 168.932 16.5469 168.484 16.5469C168.047 16.5469 167.693 16.7005 167.422 17.0078C167.151 17.3151 167.016 17.7266 167.016 18.2422V18.8203ZM163.078 20.0547L162.492 19.6797L168.047 10.7891L168.633 11.1641L163.078 20.0547Z" fill="white"/>
<path d="M278.826 137.986L279.589 130.359H287.409V131.552H280.695L280.147 136.837C280.985 136.264 281.966 135.978 283.091 135.978C284.502 135.978 285.626 136.436 286.464 137.353C287.302 138.269 287.721 139.49 287.721 141.016C287.721 142.663 287.312 143.941 286.496 144.851C285.68 145.76 284.53 146.215 283.048 146.215C281.687 146.215 280.584 145.835 279.739 145.076C278.894 144.317 278.411 143.254 278.289 141.886H279.524C279.646 142.953 280.008 143.762 280.609 144.313C281.211 144.858 282.024 145.13 283.048 145.13C284.165 145.13 285.007 144.775 285.572 144.066C286.145 143.357 286.432 142.348 286.432 141.037C286.432 139.891 286.113 138.957 285.476 138.233C284.838 137.51 283.968 137.148 282.865 137.148C282.257 137.148 281.727 137.227 281.275 137.385C280.824 137.535 280.348 137.832 279.847 138.276L278.826 137.986ZM289.539 136.812C289.539 136.135 289.747 135.576 290.164 135.133C290.586 134.685 291.12 134.461 291.766 134.461C292.411 134.461 292.943 134.685 293.359 135.133C293.781 135.576 293.992 136.151 293.992 136.859V137.414C293.992 138.081 293.784 138.638 293.367 139.086C292.956 139.529 292.427 139.75 291.781 139.75C291.141 139.75 290.607 139.531 290.18 139.094C289.753 138.656 289.539 138.078 289.539 137.359V136.812ZM290.297 137.414C290.297 137.898 290.43 138.297 290.695 138.609C290.966 138.922 291.328 139.078 291.781 139.078C292.224 139.078 292.576 138.922 292.836 138.609C293.102 138.292 293.234 137.883 293.234 137.383V136.812C293.234 136.328 293.099 135.93 292.828 135.617C292.557 135.299 292.203 135.141 291.766 135.141C291.333 135.141 290.979 135.297 290.703 135.609C290.432 135.922 290.297 136.339 290.297 136.859V137.414ZM295.266 143.211C295.266 142.534 295.474 141.974 295.891 141.531C296.312 141.089 296.844 140.867 297.484 140.867C298.125 140.867 298.656 141.089 299.078 141.531C299.505 141.969 299.719 142.547 299.719 143.266V143.82C299.719 144.497 299.508 145.057 299.086 145.5C298.669 145.943 298.141 146.164 297.5 146.164C296.859 146.164 296.326 145.945 295.898 145.508C295.477 145.065 295.266 144.49 295.266 143.781V143.211ZM296.016 143.82C296.016 144.31 296.148 144.711 296.414 145.023C296.685 145.336 297.047 145.492 297.5 145.492C297.948 145.492 298.302 145.336 298.562 145.023C298.828 144.706 298.961 144.292 298.961 143.781V143.211C298.961 142.711 298.826 142.31 298.555 142.008C298.289 141.701 297.932 141.547 297.484 141.547C297.047 141.547 296.693 141.701 296.422 142.008C296.151 142.315 296.016 142.727 296.016 143.242V143.82ZM292.078 145.055L291.492 144.68L297.047 135.789L297.633 136.164L292.078 145.055Z" fill="white"/>
<path d="M69 48L78 57" stroke="white" stroke-opacity="0.1" stroke-width="2" stroke-linecap="round"/>
<path d="M41 89L53.0711 94M276.589 186.584L265 181.784" stroke="white" stroke-opacity="0.1" stroke-width="2" stroke-linecap="round"/>
<path d="M276.589 89L264.518 94M41.0001 186.584L52.5894 181.784" stroke="white" stroke-opacity="0.1" stroke-width="2" stroke-linecap="round"/>
<path d="M110 20L114.971 32" stroke="white" stroke-opacity="0.1" stroke-width="2" stroke-linecap="round"/>
<path d="M249 48L240 57" stroke="white" stroke-opacity="0.1" stroke-width="2" stroke-linecap="round"/>
<path d="M208 20L203.029 32" stroke="white" stroke-opacity="0.1" stroke-width="2" stroke-linecap="round"/>
</svg>
