<svg width="40" height="40" viewBox="0 0 40 40" fill="none" xmlns="http://www.w3.org/2000/svg">
<circle cx="20" cy="20" r="20" fill="#16B374"/>
<path d="M24.0546 14.835H25.8078L23.2088 10.3759C22.9994 10.0146 22.5354 9.89142 22.1741 10.1049C21.8128 10.3143 21.6896 10.7783 21.9031 11.1396L24.0546 14.835Z" fill="white"/>
<path d="M18.1051 11.1396C18.3145 10.7783 18.1954 10.3143 17.8341 10.1049C17.4728 9.89553 17.0088 10.0146 16.7994 10.3759L14.2004 14.8391H15.9536L18.1051 11.1396Z" fill="white"/>
<path d="M28.7107 16.2022H11.2852C10.5748 16.2022 10 16.7771 10 17.4874V18.9122C10 19.6225 10.5748 20.1973 11.2852 20.1973H11.6875L12.9275 26.9187C13.0836 27.7112 13.8062 28.3394 14.5576 28.3394H18.2858C18.6142 28.3394 19.0413 28.3394 19.4765 28.3394H20.2648C20.7001 28.3394 21.1271 28.3394 21.4556 28.3394H25.1837C25.9351 28.3394 26.6578 27.7112 26.8138 26.9187L28.062 20.1932H28.7148C29.4252 20.1932 30 19.6184 30 18.908V17.4833C29.9959 16.7771 29.4211 16.2022 28.7107 16.2022ZM17.0951 25.8183C17.0951 26.233 16.7584 26.5451 16.3683 26.5451C15.9536 26.5451 15.6416 26.2084 15.6416 25.8183V21.7535C15.6416 21.3388 15.9782 21.0267 16.3683 21.0267C16.783 21.0267 17.0951 21.3634 17.0951 21.7535V25.8183ZM19.4272 25.8183C19.4272 26.233 19.0905 26.5451 18.7005 26.5451C18.2858 26.5451 17.9737 26.2084 17.9737 25.8183V21.7535C17.9737 21.3388 18.3104 21.0267 18.7005 21.0267C19.0905 21.0267 19.4272 21.3634 19.4272 21.7535V25.8183ZM21.7717 25.8183C21.7717 26.2084 21.4597 26.5451 21.045 26.5451C20.6549 26.5451 20.3182 26.233 20.3182 25.8183V21.7535C20.3182 21.3634 20.6549 21.0267 21.045 21.0267C21.435 21.0267 21.7717 21.3388 21.7717 21.7535V25.8183ZM24.1039 25.8183C24.1039 26.2084 23.7918 26.5451 23.3771 26.5451C22.9871 26.5451 22.6504 26.233 22.6504 25.8183V21.7535C22.6504 21.3634 22.9624 21.0267 23.3771 21.0267C23.7672 21.0267 24.1039 21.3388 24.1039 21.7535V25.8183Z" fill="white"/>
</svg>
